<svg width="22" height="22" viewBox="0 0 22 22" fill="none" xmlns="http://www.w3.org/2000/svg">
<g clip-path="url(#clip0_46_233)">
<path d="M19.976 17.1452C19.6433 17.9138 19.2495 18.6213 18.7932 19.2718C18.1712 20.1585 17.662 20.7723 17.2695 21.1132C16.6612 21.6727 16.0093 21.9592 15.3113 21.9755C14.8102 21.9755 14.2059 21.8329 13.5025 21.5437C12.7967 21.2558 12.1482 21.1132 11.5551 21.1132C10.9332 21.1132 10.2661 21.2558 9.55265 21.5437C8.83808 21.8329 8.26243 21.9836 7.82231 21.9986C7.15296 22.0271 6.48578 21.7324 5.81983 21.1132C5.39478 20.7425 4.86313 20.1069 4.22623 19.2066C3.5429 18.2451 2.9811 17.1302 2.54098 15.8591C2.06962 14.4862 1.83333 13.1568 1.83333 11.8697C1.83333 10.3953 2.15192 9.12368 2.79003 8.05807C3.29153 7.20213 3.95871 6.52694 4.79374 6.03128C5.62876 5.53562 6.531 5.28303 7.50264 5.26687C8.03429 5.26687 8.73148 5.43132 9.59787 5.75452C10.4618 6.07881 11.0166 6.24326 11.2598 6.24326C11.4416 6.24326 12.0579 6.05097 13.1026 5.66761C14.0905 5.31209 14.9243 5.16489 15.6074 5.22287C17.4583 5.37225 18.8489 6.1019 19.7737 7.41642C18.1183 8.41943 17.2994 9.82426 17.3157 11.6264C17.3306 13.0302 17.8399 14.1983 18.8407 15.1258C19.2943 15.5563 19.8008 15.889 20.3644 16.1253C20.2422 16.4797 20.1131 16.8192 19.976 17.1452V17.1452ZM15.7309 0.440598C15.7309 1.54085 15.329 2.56815 14.5278 3.51901C13.5609 4.6494 12.3914 5.30259 11.1232 5.19952C11.107 5.06752 11.0976 4.9286 11.0976 4.78261C11.0976 3.72637 11.5574 2.59599 12.374 1.67175C12.7817 1.20378 13.3001 0.814682 13.9289 0.504287C14.5563 0.198523 15.1497 0.0294296 15.7078 0.000473022C15.7241 0.147559 15.7309 0.294655 15.7309 0.440584V0.440598Z" fill="black"/>
</g>
<defs>
<clipPath id="clip0_46_233">
<rect width="22" height="22" fill="white"/>
</clipPath>
</defs>
</svg>
