<?xml version="1.0" encoding="utf-8"?>
<!-- Generator: Adobe Illustrator 26.0.3, SVG Export Plug-In . SVG Version: 6.00 Build 0)  -->
<svg version="1.1" id="レイヤー_1" xmlns="http://www.w3.org/2000/svg" xmlns:xlink="http://www.w3.org/1999/xlink" x="0px"
	 y="0px" viewBox="0 0 14400 14400" style="enable-background:new 0 0 14400 14400;" xml:space="preserve">
<style type="text/css">
	.st0{fill:#FFFFFF;}
	.st1{fill:#F43F5E;}
	.st2{fill:#070417;}
</style>
<rect id="bg" x="7183.5" y="7183.5" class="st0" width="32" height="32"/>
<g id="logo">
	<g>
		<path class="st1" d="M7195.4,7205.4C7195.4,7205.4,7195.4,7205.4,7195.4,7205.4C7195.5,7205.5,7195.5,7205.5,7195.4,7205.4
			l0.1,0.8c0,0,0,0,0,0.1c0,0,0,0-0.1,0h-1.2c0,0,0,0,0,0v4.2c0,0,0,0,0,0.1c0,0,0,0-0.1,0h-0.9c0,0,0,0-0.1,0c0,0,0,0,0-0.1v-4.2
			c0,0,0,0,0,0h-1.1c0,0,0,0-0.1,0c0,0,0,0,0-0.1v-0.7c0,0,0,0,0-0.1c0,0,0,0,0.1,0H7195.4z"/>
		<path class="st1" d="M7197,7210.8c-0.4,0-0.8-0.1-1.1-0.3c-0.3-0.2-0.4-0.5-0.5-0.9c0-0.2-0.1-0.5-0.1-0.8c0-0.3,0-0.6,0.1-0.8
			c0.1-0.4,0.2-0.7,0.5-0.9c0.3-0.2,0.6-0.3,1.1-0.3c0.4,0,0.8,0.1,1.1,0.3c0.3,0.2,0.4,0.5,0.5,0.9c0,0.2,0.1,0.5,0.1,0.8
			c0,0.3,0,0.5-0.1,0.8c-0.1,0.4-0.2,0.7-0.5,0.9C7197.8,7210.7,7197.4,7210.8,7197,7210.8z M7197,7209.9c0.1,0,0.2,0,0.3-0.1
			c0.1-0.1,0.2-0.2,0.2-0.3c0-0.2,0-0.4,0-0.6c0-0.2,0-0.4,0-0.6c0-0.1-0.1-0.3-0.2-0.3c-0.1-0.1-0.2-0.1-0.4-0.1
			c-0.1,0-0.3,0-0.4,0.1c-0.1,0.1-0.1,0.2-0.2,0.3c0,0.2,0,0.4,0,0.6c0,0.3,0,0.5,0,0.6c0,0.1,0.1,0.3,0.2,0.3
			C7196.7,7209.8,7196.9,7209.9,7197,7209.9z"/>
		<path class="st1" d="M7201.3,7205.5C7201.3,7205.5,7201.3,7205.5,7201.3,7205.5C7201.4,7205.4,7201.4,7205.4,7201.3,7205.5l1-0.1
			c0,0,0,0,0.1,0c0,0,0,0,0,0.1v5.1c0,0,0,0,0,0.1c0,0,0,0-0.1,0h-0.9c0,0,0,0-0.1,0c0,0,0,0,0-0.1v-0.2c0,0,0,0,0,0s0,0,0,0
			c-0.2,0.2-0.5,0.3-0.8,0.3c-0.6,0-1-0.4-1.2-1.2c-0.1-0.3-0.1-0.5-0.1-0.8c0-0.3,0-0.5,0.1-0.8c0.2-0.8,0.6-1.2,1.2-1.2
			c0.2,0,0.3,0,0.5,0.1c0.1,0,0.2,0.1,0.3,0.2c0,0,0,0,0,0c0,0,0,0,0,0V7205.5z M7201.3,7209.4c0-0.1,0.1-0.4,0.1-0.7
			c0-0.3,0-0.5-0.1-0.7c-0.1-0.3-0.2-0.4-0.4-0.4c-0.1,0-0.2,0-0.3,0.1c-0.1,0.1-0.1,0.2-0.2,0.3c0,0.1-0.1,0.4-0.1,0.7
			c0,0.3,0,0.5,0.1,0.7c0.1,0.3,0.2,0.4,0.5,0.4C7201,7209.9,7201.2,7209.7,7201.3,7209.4z"/>
		<path class="st1" d="M7204.7,7210.8c-0.4,0-0.8-0.1-1.1-0.3c-0.3-0.2-0.4-0.5-0.5-0.9c0-0.2-0.1-0.5-0.1-0.8c0-0.3,0-0.6,0.1-0.8
			c0.1-0.4,0.2-0.7,0.5-0.9c0.3-0.2,0.6-0.3,1.1-0.3c0.4,0,0.8,0.1,1.1,0.3c0.3,0.2,0.4,0.5,0.5,0.9c0,0.2,0.1,0.5,0.1,0.8
			c0,0.3,0,0.5-0.1,0.8c-0.1,0.4-0.2,0.7-0.5,0.9C7205.5,7210.7,7205.1,7210.8,7204.7,7210.8z M7204.7,7209.9c0.1,0,0.2,0,0.3-0.1
			c0.1-0.1,0.2-0.2,0.2-0.3c0-0.2,0-0.4,0-0.6c0-0.2,0-0.4,0-0.6c0-0.1-0.1-0.3-0.2-0.3c-0.1-0.1-0.2-0.1-0.4-0.1
			c-0.1,0-0.3,0-0.4,0.1c-0.1,0.1-0.1,0.2-0.2,0.3c0,0.2,0,0.4,0,0.6c0,0.3,0,0.5,0,0.6c0,0.1,0.1,0.3,0.2,0.3
			C7204.4,7209.8,7204.5,7209.9,7204.7,7209.9z"/>
	</g>
	<path class="st2" d="M7206.9,7201.1c-2.2,2-4.9,0-4.9,0c-3.6-2.6-6.3-0.2-6.4-0.2c0,0,0,0,0,0.1s0,0.1,0,0.1c0,0,0,0,0.1,0
		c0,0,0.1,0,0.1,0c2.4-0.9,5.3,1.9,5.3,2c0.6,0.7,1.5,1.1,2.4,1.1c0.2,0,0.4,0,0.6-0.1c1.9-0.4,3-2.8,3-2.9c0,0,0-0.1,0-0.1
		s0,0,0-0.1C7207.1,7201.1,7207,7201.1,7206.9,7201.1C7207,7201.1,7207,7201.1,7206.9,7201.1z"/>
	<path class="st2" d="M7196.1,7198.5C7196.1,7198.5,7196.1,7198.5,7196.1,7198.5c0-0.1,0-0.1,0-0.1c-0.7-0.8-1.1-1.8-1-2.9
		c0-0.7,0.2-1.4,0.6-2.1c0.4-0.6,0.9-1.2,1.5-1.5s1.3-0.6,2-0.7c0.7-0.1,1.4,0.1,2.1,0.3c0.7,0.3,1.2,0.7,1.7,1.3
		c0.4,0.6,0.8,1.2,0.9,1.9s0.1,1.4-0.1,2.1c-0.2,0.7-0.6,1.3-1.1,1.8c0,0,0,0,0,0s0,0,0,0c0,0,0,0,0,0c0,0,0,0,0,0l0.2,0.2
		c0.6,0.4,1.4,0.7,2.2,0.9c0,0,0,0,0.1,0c0,0,0,0,0,0c0.7-0.9,1.2-1.9,1.4-3s0.1-2.2-0.2-3.3c-0.3-1.1-0.9-2.1-1.7-2.9
		c-0.8-0.8-1.7-1.4-2.8-1.8c-1.1-0.4-2.2-0.5-3.3-0.3c-1.1,0.1-2.2,0.6-3.1,1.2s-1.7,1.5-2.2,2.5c-0.5,1-0.8,2.1-0.8,3.2
		c0,1.5,0.4,3,1.3,4.2c0,0,0,0,0.1,0c0,0,0.1,0,0.1,0C7194.5,7199.2,7195.2,7198.9,7196.1,7198.5
		C7196,7198.6,7196,7198.6,7196.1,7198.5C7196,7198.5,7196.1,7198.5,7196.1,7198.5z"/>
</g>
</svg>
