<svg width="22" height="22" viewBox="0 0 22 22" fill="none" xmlns="http://www.w3.org/2000/svg">
<g clip-path="url(#clip0_21_7)">
<path d="M21.5635 11.2526C21.5635 10.5049 21.5029 9.75308 21.3735 9.01746H10.998V13.2534H16.9396C16.693 14.6195 15.9008 15.828 14.7408 16.596V19.3445H18.2855C20.3671 17.4286 21.5635 14.5993 21.5635 11.2526Z" fill="#4285F4"/>
<path d="M10.998 22C13.9647 22 16.4667 21.0259 18.2896 19.3445L14.7448 16.596C13.7586 17.267 12.4854 17.6469 11.002 17.6469C8.13228 17.6469 5.69906 15.7108 4.82602 13.1078H1.16811V15.9412C3.03546 19.6557 6.83888 22 10.998 22V22Z" fill="#34A853"/>
<path d="M4.82198 13.1079C4.3612 11.7417 4.3612 10.2624 4.82198 8.8962V6.06284H1.16811C-0.39206 9.17105 -0.39206 12.833 1.16811 15.9412L4.82198 13.1079V13.1079Z" fill="#FBBC04"/>
<path d="M10.998 4.35311C12.5662 4.32886 14.0819 4.91897 15.2177 6.0022L18.3583 2.86165C16.3697 0.994298 13.7303 -0.0323415 10.998 -6.4036e-06C6.83888 -6.4036e-06 3.03546 2.34429 1.16811 6.06283L4.82197 8.89619C5.69098 6.28917 8.12824 4.35311 10.998 4.35311V4.35311Z" fill="#EA4335"/>
</g>
<defs>
<clipPath id="clip0_21_7">
<rect width="22" height="22" fill="white"/>
</clipPath>
</defs>
</svg>
