<?xml version="1.0" encoding="utf-8"?>
<!-- Generator: Adobe Illustrator 26.0.3, SVG Export Plug-In . SVG Version: 6.00 Build 0)  -->
<svg version="1.1" id="レイヤー_1" xmlns="http://www.w3.org/2000/svg" xmlns:xlink="http://www.w3.org/1999/xlink" x="0px"
	 y="0px" viewBox="0 0 512 109.3" style="enable-background:new 0 0 512 109.3;" xml:space="preserve">
<style type="text/css">
	.st0{fill:#231815;}
	.st1{fill:#F43F5E;}
</style>
<path class="st0" d="M101.9,87.8c-15.1,13.8-34.1,0-34.3,0c-25-18.2-44.2-1.7-44.4-1.5c-0.1,0.1-0.2,0.3-0.2,0.5
	c0,0.2,0.1,0.4,0.2,0.5c0.1,0.2,0.2,0.3,0.4,0.3s0.4,0.1,0.5,0c16.4-6.5,36.8,13.6,37.1,13.8c4.5,4.6,10.5,7.4,17,7.8
	c1.3,0,2.6-0.1,3.8-0.4c13.3-2.8,20.8-19.3,21.2-20c0.1-0.2,0.1-0.4,0-0.5c0-0.2-0.2-0.3-0.3-0.4c-0.1-0.1-0.3-0.2-0.5-0.2
	C102.2,87.6,102,87.7,101.9,87.8z"/>
<path class="st0" d="M131.4,29.4H113c-0.4,0-0.8,0.4-0.8,0.8v69.5c0,0.4,0.4,0.8,0.8,0.8h18.5c0.4,0,0.8-0.4,0.8-0.8V30.2
	C132.2,29.7,131.9,29.4,131.4,29.4z"/>
<path class="st0" d="M207.9,47.5c-1.7-3.8-4.1-7.3-7.1-10.2c-3-2.9-6.6-5.2-10.5-6.8c-4-1.7-8.4-2.5-12.8-2.5
	c-4.1,0-8.2,0.7-12.1,2.2c-3.5,1.3-6.8,3.2-9.7,5.6l-5.5-6.1c-0.2-0.2-0.4-0.2-0.6-0.2h-4.3c-0.2,0-0.4,0.1-0.5,0.2
	c-0.1,0.1-0.2,0.3-0.2,0.5v69.7c0,0.2,0.1,0.4,0.2,0.6c0.1,0.1,0.3,0.2,0.6,0.2h18.4c0.2,0,0.4-0.1,0.6-0.2c0.1-0.1,0.2-0.3,0.2-0.6
	v-40c0-1.7,0.3-3.3,1-4.8c1.4-3.1,3.9-5.5,7-6.7c3.3-1.3,6.9-1.3,10.2,0c1.5,0.6,2.9,1.5,4.1,2.7c1.2,1.1,2.1,2.5,2.8,4
	c0.7,1.5,1,3.2,1,4.8v39.7c0,0.2,0.1,0.4,0.2,0.6c0.1,0.1,0.3,0.2,0.6,0.2h18.4c0.2,0,0.4-0.1,0.6-0.2c0.1-0.1,0.2-0.3,0.2-0.6V59.9
	C210.6,55.7,209.7,51.4,207.9,47.5L207.9,47.5z"/>
<path class="st0" d="M145.4,8.5c0.1-0.2,0.1-0.3,0-0.5c0-0.2-0.1-0.3-0.2-0.4c-0.1-0.1-0.3-0.1-0.4-0.1c-0.2,0-0.3,0-0.4,0.1
	L143.5,8c-4.7,2.4-8.8-0.8-12.8-3.8c-2.6-2.2-5.7-3.6-9.1-3.9c-1.3,0-2.6,0.2-3.8,0.5h-0.2c-1.8,0.5-3.6,1.3-5.2,2.4
	c-0.1,0.1-0.2,0.2-0.2,0.3c-0.1,0.1-0.1,0.2-0.1,0.4V23c0,0.1,0,0.3,0.1,0.4c0.1,0.1,0.2,0.2,0.3,0.3h0.3c0.2,0,0.4-0.1,0.5-0.2
	l0.6-0.5h0.2c0.1,0,0.1-0.1,0.2-0.2c1.1-0.8,2.1-1.5,3-2.1c2.3-1.5,5-2.3,7.8-2.2h0.4h1.7c4.6,0.7,9.3-0.4,13.1-3l0,0l0.6-0.2
	c0.4-0.3,0.7-0.7,1-1.1h0.2l0.5-0.7c1-1.3,1.7-2.8,2.4-4.3L145.4,8.5z"/>
<path class="st0" d="M26,69.9c0-0.1,0-0.2,0-0.4c0-0.1-0.1-0.2-0.2-0.3c-4.8-5.7-7.3-12.9-7.1-20.3c0.1-5,1.5-9.9,3.9-14.3
	c2.5-4.4,6-8.1,10.2-10.8C37,21,41.8,19.4,46.9,19c5-0.4,10,0.4,14.6,2.4c4.6,2,8.7,5.1,11.8,9c3.1,3.9,5.3,8.6,6.2,13.5
	c0.9,4.9,0.6,10-0.9,14.8c-1.5,4.8-4.2,9.1-7.7,12.7c-0.1,0.1-0.1,0.2-0.2,0.3c0,0.1,0,0.2,0,0.3c0,0.1,0,0.2,0.1,0.3
	c0.1,0.1,0.1,0.2,0.2,0.3l1.7,1.2c4.5,3.1,9.7,5.2,15.1,6.1l0,0c0.1,0,0.2,0,0.4-0.1s0.2-0.1,0.3-0.2c4.8-6.2,8-13.4,9.5-21.1
	c1.4-7.7,1-15.6-1.2-23.1c-2.2-7.5-6.2-14.4-11.6-20s-12-10-19.4-12.6c-7.4-2.6-15.3-3.4-23-2.4c-7.7,1-15.1,3.9-21.6,8.4
	C14.8,13.3,9.5,19.2,5.8,26.1C2.2,33,0.2,40.6,0,48.5c-0.2,10.5,2.9,20.7,8.9,29.3c0.1,0.2,0.3,0.3,0.5,0.3c0.2,0,0.4,0,0.6-0.1
	c4.9-3,10.1-5.6,15.6-7.6c0.1,0,0.2-0.1,0.3-0.2C25.9,70.1,26,70,26,69.9L26,69.9z"/>
<path class="st1" d="M308,0.1c0.5,0,0.9,0.2,1.1,0.6c0.4,0.3,0.6,0.7,0.6,1.1v13.8c0,0.5-0.2,0.9-0.6,1.3c-0.3,0.3-0.7,0.4-1.1,0.4
	h-21.6c-0.5,0-0.7,0.2-0.7,0.7v79.2c0,0.5-0.2,0.9-0.6,1.3c-0.3,0.3-0.7,0.4-1.1,0.4h-16.6c-0.5,0-0.9-0.1-1.3-0.4
	c-0.3-0.4-0.4-0.8-0.4-1.3V18c0-0.5-0.2-0.7-0.7-0.7h-20.9c-0.5,0-0.9-0.1-1.3-0.4c-0.3-0.4-0.4-0.8-0.4-1.3V1.8
	c0-0.5,0.1-0.8,0.4-1.1c0.4-0.4,0.8-0.6,1.3-0.6H308z"/>
<path class="st1" d="M338.3,100c-8.2,0-15-2-20.3-6.1c-5.2-4.1-8.3-9.8-9.4-16.9c-0.8-4.3-1.1-9.2-1.1-14.5c0-5.5,0.4-10.3,1.1-14.5
	c1-7,4.2-12.5,9.4-16.5c5.3-4.1,12.1-6.2,20.3-6.2c8.1,0,14.8,2.1,19.9,6.2c5.2,4,8.4,9.6,9.5,16.5c0.8,4.2,1.1,9.1,1.1,14.5
	c0,5.3-0.4,10.1-1.1,14.4c-1,7.2-4.2,12.9-9.4,17.1C353.2,98,346.5,100,338.3,100z M338.3,83c2.5,0,4.5-0.8,6.3-2.4
	c1.8-1.6,3-3.8,3.6-6.5c0.5-4,0.7-7.8,0.7-11.6c0-3.9-0.2-7.7-0.7-11.4c-0.5-2.7-1.6-4.8-3.4-6.4c-1.7-1.6-3.9-2.4-6.5-2.4
	c-2.6,0-4.7,0.8-6.5,2.4c-1.7,1.5-2.8,3.6-3.3,6.4c-0.5,2.8-0.7,6.6-0.7,11.4c0,4.7,0.2,8.6,0.6,11.6c0.6,2.7,1.8,4.9,3.6,6.5
	S335.7,83,338.3,83z"/>
<path class="st1" d="M419.3,1.8c0-0.5,0.1-0.8,0.4-1.1c0.4-0.4,0.8-0.6,1.3-0.6h16.6c0.5,0,0.9,0.2,1.1,0.6c0.4,0.3,0.6,0.7,0.6,1.1
	v95.5c0,0.5-0.2,0.9-0.6,1.3c-0.3,0.3-0.7,0.4-1.1,0.4H421c-0.5,0-0.9-0.1-1.3-0.4c-0.3-0.4-0.4-0.8-0.4-1.3v-3.1
	c0-0.3-0.1-0.5-0.3-0.6c-0.2-0.1-0.4,0-0.6,0.3c-3.5,4.1-8.5,6.2-15.1,6.2c-11.6,0-19-7.5-22.3-22.5c-0.9-4.7-1.4-9.9-1.4-15.7
	c0-5.1,0.4-10,1.3-14.8c2.9-14.6,10.5-21.9,22.7-21.9c3.3,0,6.2,0.5,8.5,1.4c2.4,0.8,4.5,2.4,6.3,4.5c0.2,0.3,0.4,0.4,0.6,0.3
	c0.2-0.1,0.3-0.3,0.3-0.6V1.8z M418.1,74.8c0.7-2.7,1-6.8,1-12.3c0-5-0.4-9.1-1.1-12.4c-1.2-5.2-4-7.8-8.4-7.8c-2.2,0-4,0.7-5.4,2
	c-1.4,1.3-2.5,3.2-3.1,5.6c-0.9,2.7-1.3,6.9-1.3,12.6c0,5.4,0.3,9.4,1,12.1c1.2,5.6,4.2,8.3,8.8,8.3C413.9,83,416.7,80.2,418.1,74.8
	z"/>
<path class="st1" d="M481.5,100c-8.2,0-15-2-20.3-6.1c-5.2-4.1-8.3-9.8-9.4-16.9c-0.8-4.3-1.1-9.2-1.1-14.5c0-5.5,0.4-10.3,1.1-14.5
	c1-7,4.2-12.5,9.4-16.5c5.3-4.1,12.1-6.2,20.3-6.2c8.1,0,14.8,2.1,19.9,6.2c5.2,4,8.4,9.6,9.5,16.5c0.8,4.2,1.1,9.1,1.1,14.5
	c0,5.3-0.4,10.1-1.1,14.4c-1,7.2-4.2,12.9-9.4,17.1C496.4,98,489.7,100,481.5,100z M481.5,83c2.5,0,4.5-0.8,6.3-2.4
	c1.8-1.6,3-3.8,3.6-6.5c0.5-4,0.7-7.8,0.7-11.6c0-3.9-0.2-7.7-0.7-11.4c-0.5-2.7-1.6-4.8-3.4-6.4c-1.7-1.6-3.9-2.4-6.5-2.4
	c-2.6,0-4.7,0.8-6.5,2.4c-1.7,1.5-2.8,3.6-3.3,6.4c-0.5,2.8-0.7,6.6-0.7,11.4c0,4.7,0.2,8.6,0.6,11.6c0.6,2.7,1.8,4.9,3.6,6.5
	C476.7,82.2,478.9,83,481.5,83z"/>
</svg>
